,
.   http://www.scenetime.com/signup.php  ---&gt;  Hottest scene tracker on the net !!!
 
Scenetime lucky draw is started , join now and be the winner . offer is limited 

    Join Now   http://www.scenetime.com/signup.php

    seed back for speed


 



...................................NFO:.................................................








































          
          
              
              
                    
                    
                    
                    

Dont.Be.Afraid.Of.The.Dark.2010.DVDRiP.XviD.AC3-SiC

Poster:
[img]http://img823.imageshack.us/img823/4649/dontbeafraidofthedark20.jpg[/img]

IMDB Link:
http://www.imdb.com/title/tt1270761/

Description:
A young girl is sent to live with her estranged father and his girlfriend at their new home. The father, Alex has plans to spruce up the home with the help of his interior decorator girlfriend, Kim. The previous owner of the home was a famous painter who mysteriously disappeared. Alex's daughter, Sally, soon discovers the cause of the painter's disappearance.  

MediaInfo:
General
Complete name                    : Dont.Be.Afraid.Of.The.Dark.2010.DVDRiP.XviD.AC3-SiC.avi
Format                           : AVI
Format/Info                      : Audio Video Interleave
File size                        : 1.37 GiB
Duration                         : 1h 39mn
Overall bit rate                 : 1 971 Kbps

Video
ID                               : 0
Format                           : MPEG-4 Visual
Format profile                   : Advanced Simple@L5
Format settings, BVOP            : 1
Format settings, QPel            : No
Format settings, GMC             : No warppoints
Format settings, Matrix          : Default (H.263)
Codec ID                         : XVID
Codec ID/Hint                    : XviD
Duration                         : 1h 39mn
Bit rate                         : 1 516 Kbps
Width                            : 720 pixels
Height                           : 384 pixels
Display aspect ratio             : 1.875
Frame rate                       : 23.976 fps
Color space                      : YUV
Chroma subsampling               : 4:2:0
Bit depth                        : 8 bits
Scan type                        : Progressive
Compression mode                 : Lossy
Bits/(Pixel*Frame)               : 0.229
Stream size                      : 1.05 GiB (77%)
Writing library                  : XviD 1.2.1 (UTC 2008-12-04)

Audio
ID                               : 1
Format                           : AC-3
Format/Info                      : Audio Coding 3
Mode extension                   : CM (complete main)
Codec ID                         : 2000
Duration                         : 1h 39mn
Bit rate mode                    : Constant
Bit rate                         : 448 Kbps
Channel(s)                       : 6 channels
Channel positions                : Front: L C R, Side: L R, LFE
Sampling rate                    : 48.0 KHz
Bit depth                        : 16 bits
Compression mode                 : Lossy
Stream size                      : 319 MiB (23%)
Alignment                        : Aligned on interleaves
Interleave, duration             : 64 ms (1.53 video frames)
Interleave, preload duration     : 192 ms
Title                            : VTS_01_1 T80 3_2ch 448Kbps DELAY 0ms

Screenshots:
[img]http://img850.imageshack.us/img850/259/vlcsnap2011121017h19m08.png[/img]
[img]http://img17.imageshack.us/img17/9348/vlcsnap2011121017h19m40.png[/img]
[img]http://img24.imageshack.us/img24/6784/vlcsnap2011121017h19m49.png[/img]
[img]http://img546.imageshack.us/img546/1469/vlcsnap2011121017h19m56.png[/img]
[img]http://img198.imageshack.us/img198/2443/vlcsnap2011121017h20m07.png[/img]


Note : Took forever for it to happen, but a watchable copy of this film is finally here. Stay tuned for more goodies to come, if we don't get beat :)     

Source: Retail/Our Own

Enjoy!

Respects to T00NG0D, CM8, Rx, ELEKTRI4KA, PA, YeFsTe, Box, MrRep and everyone in the struggle...